<?xml version="1.0" standalone="no"?>
<!DOCTYPE svg PUBLIC "-//W3C//DTD SVG 20010904//EN"
 "http://www.w3.org/TR/2001/REC-SVG-20010904/DTD/svg10.dtd">
<svg version="1.0" xmlns="http://www.w3.org/2000/svg"
 width="225.000000pt" height="225.000000pt" viewBox="0 0 225.000000 225.000000"
 preserveAspectRatio="xMidYMid meet">
<metadata>
Created by potrace 1.10, written by Peter Selinger 2001-2011
</metadata>
<g transform="translate(0.000000,225.000000) scale(0.100000,-0.100000)"
fill="#ffffff" stroke="none">
<path d="M1595 2190 c-103 -74 -231 -208 -283 -296 -39 -65 -72 -150 -87 -221
-6 -30 -5 -33 19 -33 14 0 54 -11 90 -24 176 -67 276 -192 280 -352 0 -40 1
-74 2 -74 0 0 21 26 46 59 l46 59 -24 73 c-67 204 -85 491 -44 702 11 60 25
120 31 134 5 14 8 27 7 28 -2 1 -39 -24 -83 -55z m30 -41 c-4 -17 -8 -40 -10
-52 -29 -208 -32 -380 -10 -497 8 -41 17 -88 20 -105 3 -16 15 -61 26 -99 19
-64 19 -123 0 -112 -5 3 -11 23 -15 43 -22 137 -132 252 -303 318 -49 19 -73
34 -73 45 0 65 78 213 168 318 41 48 184 172 198 172 3 0 3 -14 -1 -31z"/>
<path d="M50 1943 c1 -71 7 -163 15 -205 53 -300 237 -567 523 -758 96 -64
311 -171 391 -196 59 -17 60 -18 43 -37 -30 -34 -177 -126 -263 -166 -101 -46
-271 -104 -358 -122 -58 -12 -65 -17 -77 -46 -8 -18 -14 -66 -14 -108 0 -61 5
-85 26 -126 29 -58 96 -129 145 -154 l33 -17 30 38 c107 135 235 239 339 273
97 32 185 42 422 51 226 8 251 12 342 58 172 88 287 293 339 607 9 55 23 112
31 128 18 36 88 86 140 100 24 6 43 14 43 18 0 14 -86 78 -131 98 -110 51
-207 9 -319 -139 -89 -117 -153 -166 -184 -141 -7 6 -11 22 -9 36 8 38 -16
153 -42 204 -30 60 -107 132 -183 170 -33 17 -107 42 -164 55 -195 47 -573
188 -778 291 -104 53 -231 129 -288 175 l-52 40 0 -127z m240 -66 c96 -53 340
-163 449 -202 53 -18 147 -52 210 -75 63 -22 161 -52 217 -65 152 -36 249 -90
304 -170 33 -48 60 -147 60 -223 0 -33 6 -48 23 -62 44 -37 115 7 202 124 73
99 115 136 176 156 46 16 58 16 97 5 24 -8 62 -26 84 -40 l40 -27 -43 -25
c-102 -60 -136 -114 -154 -248 -13 -100 -58 -252 -98 -329 -56 -108 -108 -170
-180 -217 -101 -64 -161 -78 -349 -80 -144 -2 -205 -6 -324 -23 -67 -10 -160
-39 -204 -64 -74 -42 -178 -132 -238 -204 -56 -68 -56 -68 -81 -52 -46 29 -82
68 -112 119 -25 44 -29 60 -29 132 0 88 5 113 24 113 7 0 72 18 145 40 225 67
400 154 503 249 49 46 52 51 37 66 -9 9 -59 34 -110 54 -553 223 -859 607
-859 1077 l0 105 73 -49 c39 -27 101 -65 137 -85z"/>
</g>
</svg>
